<svg width="763" height="120" viewBox="0 0 763 120" fill="none" xmlns="http://www.w3.org/2000/svg">
<g clip-path="url(#clip0_102_3)">
<path d="M99.47 5V43.9875L80.1227 53.7598V39.0743C70.7958 41.9223 60.5875 43.4211 50.0674 43.4211C39.5473 43.4211 29.339 41.9191 20.0153 39.0743V76.9671C20.0153 79.1374 21.0082 81.2248 22.717 82.8064C1.51123 69.0659 0.667969 50.5459 0.667969 50.5459V5C3.64645 8.89493 7.5382 11.832 10.3862 13.6586C13.3265 15.5456 16.5564 17.2003 20.0185 18.5941C28.8553 22.1612 39.1909 24.0705 50.0706 24.0705C60.9503 24.0705 71.2859 22.1612 80.1258 18.5941C83.588 17.2003 86.8147 15.5456 89.7582 13.6586C92.603 11.832 96.4947 8.89493 99.4764 5H99.47Z" fill="white"/>
<path d="M54.9679 94.5771C30.9619 106.577 13.492 100.054 13.492 100.054C5.50799 94.8762 0.667969 86.2844 0.667969 76.9672V50.5459C0.667969 50.5459 1.51123 69.0659 22.717 82.8064C22.7202 82.8159 22.7265 82.8159 22.7297 82.8191C23.3948 83.4301 24.1712 83.9678 25.0336 84.407L28.2189 86.014C28.2953 86.0521 28.3684 86.0903 28.448 86.1285C28.7948 86.3099 29.1481 86.4913 29.5045 86.6663L44.8678 94.4275C47.9767 95.9963 51.8112 96.0472 54.9679 94.5739V94.5771Z" fill="white"/>
<path d="M99.4694 72.105V93.7658L80.1188 103.544L63.9918 111.697C59.6323 113.902 54.8463 115 50.0604 115C45.2745 115 40.5013 113.902 36.1418 111.697L16.3139 101.673C15.3465 101.196 14.4301 100.668 13.5391 100.073C14.6369 100.448 31.7536 106.189 54.9641 94.5772C55.0659 94.5263 55.1709 94.4754 55.2727 94.4213L80.1188 81.8678L99.4694 72.1018V72.105Z" fill="white"/>
<path d="M80.1191 84.9575V70.4947L99.4697 60.7319V84.9575H80.1191Z" fill="white"/>
</g>
<path d="M183.836 91H158.015C148.344 91 141.579 88.4957 137.722 83.4871C133.922 78.4784 132.022 70.9079 132.022 60.7756C132.022 50.6432 133.922 43.0727 137.722 38.064C141.579 33.0554 148.344 30.5511 158.015 30.5511H182.972V42.6409H165.701C158.735 42.6409 154.014 43.8499 151.539 46.2678C149.121 48.6858 147.912 53.5217 147.912 60.7756C147.912 68.0294 149.121 72.8653 151.539 75.2833C154.014 77.7012 158.735 78.9102 165.701 78.9102H183.836V91ZM207.577 31.1556C211.435 30.292 216.472 29.8603 222.69 29.8603C228.907 29.8603 233.945 30.292 237.802 31.1556C241.659 32.0192 244.912 33.6023 247.56 35.9052C250.266 38.208 252.137 41.3456 253.173 45.3179C254.267 49.2903 254.814 54.4428 254.814 60.7756C254.814 67.1083 254.267 72.2608 253.173 76.2332C252.137 80.2056 250.266 83.3719 247.56 85.7323C244.912 88.0351 241.659 89.6183 237.802 90.4819C233.945 91.2879 228.907 91.6908 222.69 91.6908C216.472 91.6908 211.435 91.2879 207.577 90.4819C203.72 89.6183 200.439 88.0351 197.733 85.7323C195.085 83.3719 193.214 80.2056 192.12 76.2332C191.084 72.2608 190.565 67.1083 190.565 60.7756C190.565 54.4428 191.084 49.2903 192.12 45.3179C193.214 41.3456 195.085 38.208 197.733 35.9052C200.439 33.6023 203.72 32.0192 207.577 31.1556ZM209.823 46.0088C207.577 48.657 206.455 53.5793 206.455 60.7756C206.455 67.9719 207.577 72.9229 209.823 75.6287C212.126 78.2769 216.415 79.6011 222.69 79.6011C228.965 79.6011 233.225 78.2769 235.47 75.6287C237.773 72.9229 238.925 67.9719 238.925 60.7756C238.925 53.5793 237.773 48.657 235.47 46.0088C233.225 43.3029 228.965 41.95 222.69 41.95C216.415 41.95 212.126 43.3029 209.823 46.0088ZM329.292 49.2903L316.856 84.0052C315.878 86.711 314.726 88.6684 313.402 89.8774C312.078 91.0864 309.862 91.6908 306.753 91.6908C303.586 91.6908 301.341 91.0864 300.017 89.8774C298.693 88.6684 297.542 86.711 296.563 84.0052L284.214 49.2903C283.696 47.9086 283.264 47.2177 282.919 47.2177C282.343 47.2177 282.055 47.851 282.055 49.1176L282.487 91H266.943V39.1867C266.943 37.2868 267.346 35.6749 268.152 34.3508C268.958 33.0266 270.023 32.0767 271.347 31.501C272.729 30.8677 274.024 30.436 275.233 30.2057C276.5 29.9754 277.824 29.8603 279.205 29.8603C285.826 29.8603 290.201 32.8251 292.331 38.7549L305.026 73.6425C305.601 75.3121 306.177 76.1468 306.753 76.1468C307.328 76.1468 307.904 75.3121 308.48 73.6425L321.174 38.7549C323.304 32.8251 327.651 29.8603 334.214 29.8603C342.446 29.8603 346.563 32.9691 346.563 39.1867V91H331.019L331.537 49.1176C331.537 47.851 331.22 47.2177 330.587 47.2177C330.242 47.2177 329.81 47.9086 329.292 49.2903ZM411.09 30.5511V42.2955H380.002C378.505 42.2955 377.44 42.6121 376.807 43.2454C376.231 43.8211 375.943 44.8573 375.943 46.3542V54.7307H410.313V65.9569H375.943V75.1969C375.943 76.6938 376.231 77.7588 376.807 78.3921C377.44 78.9678 378.505 79.2556 380.002 79.2556H411.435V91H369.553C363.45 91 360.399 87.92 360.399 81.76V39.8775C360.399 33.6599 363.45 30.5511 369.553 30.5511H411.09ZM485.413 30.5511V82.019C485.413 84.6097 484.549 86.8837 482.822 88.8411C481.153 90.7409 478.332 91.6908 474.359 91.6908C469.121 91.6908 465.292 89.8486 462.874 86.1641L439.299 50.672C438.666 49.6933 438.119 49.2039 437.658 49.2039C436.968 49.2039 436.622 49.7796 436.622 50.931V91H423.496V39.3594C423.496 36.193 424.532 33.8326 426.605 32.2782C428.735 30.6663 431.498 29.8603 434.895 29.8603C440.019 29.8603 443.732 31.5874 446.035 35.0416L469.783 70.8792C469.84 70.9367 469.927 71.1094 470.042 71.3973C470.214 71.6276 470.33 71.8003 470.387 71.9154C470.502 71.973 470.646 72.0593 470.819 72.1745C470.992 72.2896 471.164 72.3472 471.337 72.3472C471.97 72.3472 472.287 71.8579 472.287 70.8792V30.5511H485.413ZM532.49 91H516.946V42.6409H494.493V30.5511H554.942V42.6409H532.49V91ZM577.625 31.1556C581.482 30.292 586.519 29.8603 592.737 29.8603C598.954 29.8603 603.992 30.292 607.849 31.1556C611.706 32.0192 614.959 33.6023 617.607 35.9052C620.313 38.208 622.184 41.3456 623.22 45.3179C624.314 49.2903 624.861 54.4428 624.861 60.7756C624.861 67.1083 624.314 72.2608 623.22 76.2332C622.184 80.2056 620.313 83.3719 617.607 85.7323C614.959 88.0351 611.706 89.6183 607.849 90.4819C603.992 91.2879 598.954 91.6908 592.737 91.6908C586.519 91.6908 581.482 91.2879 577.625 90.4819C573.767 89.6183 570.486 88.0351 567.78 85.7323C565.132 83.3719 563.261 80.2056 562.167 76.2332C561.131 72.2608 560.612 67.1083 560.612 60.7756C560.612 54.4428 561.131 49.2903 562.167 45.3179C563.261 41.3456 565.132 38.208 567.78 35.9052C570.486 33.6023 573.767 32.0192 577.625 31.1556ZM579.87 46.0088C577.625 48.657 576.502 53.5793 576.502 60.7756C576.502 67.9719 577.625 72.9229 579.87 75.6287C582.173 78.2769 586.462 79.6011 592.737 79.6011C599.012 79.6011 603.272 78.2769 605.517 75.6287C607.82 72.9229 608.972 67.9719 608.972 60.7756C608.972 53.5793 607.82 48.657 605.517 46.0088C603.272 43.3029 599.012 41.95 592.737 41.95C586.462 41.95 582.173 43.3029 579.87 46.0088ZM636.99 91V39.8775C636.99 33.6599 640.041 30.5511 646.144 30.5511H678.441C684.428 30.5511 688.602 32.1919 690.962 35.4734C693.38 38.7549 694.589 43.7347 694.589 50.4129C694.589 64.2873 690.012 71.2246 680.859 71.2246H676.541V71.6564L695.798 91H676.713L663.069 75.2833C662.839 74.9954 662.378 74.5061 661.688 73.8152C660.997 73.0668 660.479 72.4911 660.133 72.0881C659.788 71.6851 659.385 71.167 658.924 70.5337C658.464 69.9005 658.118 69.2672 657.888 68.6339C657.715 68.0006 657.629 67.3674 657.629 66.7341V65.3524C657.629 63.2799 658.349 61.8694 659.788 61.121C661.227 60.315 663.472 59.912 666.524 59.912H671.618C674.382 59.912 676.253 59.2212 677.232 57.8395C678.21 56.4578 678.7 54.155 678.7 50.931C678.7 47.8222 678.153 45.6633 677.059 44.4544C675.965 43.2454 673.95 42.6409 671.014 42.6409H656.593C655.096 42.6409 654.031 42.9575 653.397 43.5908C652.822 44.1665 652.534 45.2028 652.534 46.6996V91H636.99Z" fill="white"/>
<defs>
<clipPath id="clip0_102_3">
<rect width="98.8021" height="110" fill="white" transform="translate(0.666992 5)"/>
</clipPath>
</defs>
</svg>
